<?xml version="1.0" encoding="utf-8"?>
<!-- Generator: Adobe Illustrator 24.0.0, SVG Export Plug-In . SVG Version: 6.00 Build 0)  -->
<svg version="1.1" id="Capa_1" xmlns="http://www.w3.org/2000/svg" xmlns:xlink="http://www.w3.org/1999/xlink" x="0px" y="0px"
	 viewBox="0 0 2500 1390.3" style="enable-background:new 0 0 2500 1390.3;" xml:space="preserve">
<style type="text/css">
	.st0{fill-rule:evenodd;clip-rule:evenodd;fill:#FFFFFF;}
</style>
<g>
	<path class="st0" d="M73.5,498.5v164.1h479.9c55.8,0,127.1-51.6,127.1-136.9c0-34.3,13.1-56.7-27.2-102.1l-61.4-72.7
		c-35.2-32.8,4.2-32.8,33.7-32.8h202.6v344.6H989V318h216.6V170.4H504.2c-85.3,0-127.1,81.9-124.7,124.6
		c2.4,42.7,10.2,96.3,81.1,160.8c64.7,58.8-32,42.7-41.7,42.7L73.5,498.5L73.5,498.5z M1560.9,170.4h-259.2l-145.3,492.1H1318
		l26.2-68.9h170.6l25.3,68.9h158.4L1560.9,170.4L1560.9,170.4z M1380.4,475.5l55.8-180.5l52.5,180.5H1380.4z M2210.6,498.5
		c-62.3,0-62.3-23-62.3-23c53.4,0,100.8-77.8,100.8-157.5s-77.8-147.6-140.2-147.6h-348.8v492.1h177.2V498.5
		c0,0,75.5,88.6,114.8,124.7c39.4,36.1,42.7,39.4,96.1,39.4h278.2V498.5C2426.5,498.5,2272.9,498.5,2210.6,498.5L2210.6,498.5z
		 M2049.8,383.6h-112.5V295h112.5C2101.4,295,2110.3,383.6,2049.8,383.6z M73.5,724.9h181.3L300.8,889l42.7-164.1h190.3L583,889
		l49.2-164.1h157.5l-144.4,492.2H500.9l-63.3-233l-71.3,233H218.7L73.5,724.9z M1161.8,727.7H902.6l-145.3,492.1H919l26.3-68.9
		h170.6l25.3,68.9h158.4L1161.8,727.7z M981.3,1032.8l55.8-180.5l52.5,180.5H981.3z M2213.9,872.6c-29.5,0-61.7,3.4-26.5,36.3
		l61.4,72.7c40.3,45.4,39.7,64.3,39.7,98.7c0,85.3-84.4,136.9-140.2,136.9l-387.7,2.6c-53.4,0-56.7-3.3-96.1-39.4
		c-39.4-36.1-114.8-124.7-114.8-124.7v164.1h-177.2V727.6h348.8c62.3,0,140.2,67.9,140.2,147.6c0,79.7-47.4,157.5-100.8,157.5
		c0,0,23.5,23.6,62.9,23.6c39.4,0,191,0.2,191,0.2c9.7,0,106.4,16.1,41.7-42.7c-70.9-64.5-78.8-118.1-81.1-160.8
		s34.5-128.2,119.8-128.2h331.6v147.7L2213.9,872.6L2213.9,872.6L2213.9,872.6z M1662.1,940.8h-112.5v-88.6h112.5
		C1713.6,852.2,1722.6,940.8,1662.1,940.8z"/>
</g>
</svg>
